<svg width="21" height="20" viewBox="0 0 21 20" fill="none" xmlns="http://www.w3.org/2000/svg">
<path d="M11.742 2.43359L16.6587 4.61693C18.0753 5.24193 18.0753 6.27526 16.6587 6.90026L11.742 9.08359C11.1837 9.33359 10.267 9.33359 9.70866 9.08359L4.79199 6.90026C3.37533 6.27526 3.37533 5.24193 4.79199 4.61693L9.70866 2.43359C10.267 2.18359 11.1837 2.18359 11.742 2.43359Z" stroke="#343D4C" stroke-width="1.5" stroke-linecap="round" stroke-linejoin="round"/>
<path d="M3.40039 9.16699C3.40039 9.86699 3.92539 10.6753 4.56706 10.9587L10.2254 13.4753C10.6587 13.667 11.1504 13.667 11.5754 13.4753L17.2337 10.9587C17.8754 10.6753 18.4004 9.86699 18.4004 9.16699" stroke="#343D4C" stroke-width="1.5" stroke-linecap="round" stroke-linejoin="round"/>
<path d="M3.40039 13.333C3.40039 14.108 3.85872 14.808 4.56706 15.1247L10.2254 17.6413C10.6587 17.833 11.1504 17.833 11.5754 17.6413L17.2337 15.1247C17.9421 14.808 18.4004 14.108 18.4004 13.333" stroke="#343D4C" stroke-width="1.5" stroke-linecap="round" stroke-linejoin="round"/>
</svg>
