<svg width="200" height="66" viewBox="0 0 200 66" fill="none" xmlns="http://www.w3.org/2000/svg">
<path d="M25.0269 28.1772V38.3487L16.6683 28.1772H13.8799V42.8365H16.7082V32.3568L25.3263 42.8365H27.8552V28.1772H25.0269Z" fill="#FFB900"/>
<path d="M41.0325 27.9121C39.4093 27.9109 37.8222 28.3556 36.4719 29.1901C35.1217 30.0246 34.0689 31.2112 33.4469 32.6C32.8248 33.9887 32.6613 35.5172 32.9772 36.992C33.293 38.4669 34.074 39.8218 35.2213 40.8855C36.3686 41.9491 37.8307 42.6736 39.4226 42.9674C41.0145 43.2611 42.6647 43.111 44.1644 42.5359C45.6642 41.9607 46.9461 40.9865 47.848 39.7365C48.75 38.4863 49.2314 37.0166 49.2314 35.513C49.2322 34.5151 49.0208 33.5269 48.6092 32.6047C48.1975 31.6825 47.5937 30.8446 46.8323 30.1387C46.0709 29.4328 45.1667 28.8729 44.1716 28.4908C43.1764 28.1088 42.1098 27.9121 41.0325 27.9121ZM41.0325 40.5556C39.954 40.5568 38.8993 40.2616 38.0019 39.7073C37.1046 39.153 36.405 38.3645 35.9916 37.4418C35.5782 36.519 35.4698 35.5033 35.6799 34.5233C35.89 33.5434 36.4092 32.6433 37.1719 31.9369C37.9345 31.2304 38.9062 30.7494 39.9642 30.5548C41.022 30.3602 42.1185 30.4607 43.1147 30.8435C44.1109 31.2265 44.962 31.8745 45.5604 32.7057C46.1588 33.5369 46.4776 34.5139 46.4762 35.513C46.4762 36.8503 45.9027 38.1329 44.8818 39.0787C43.8609 40.0243 42.4762 40.5556 41.0325 40.5556Z" fill="#FFB900"/>
<path d="M117.365 20.5767C115.741 20.5767 114.156 21.0225 112.806 21.8577C111.456 22.6928 110.405 23.8799 109.784 25.2688C109.163 26.6577 109.001 28.186 109.317 29.6604C109.633 31.1348 110.415 32.4892 111.563 33.5521C112.71 34.6152 114.172 35.3391 115.764 35.6324C117.355 35.9257 119.005 35.7752 120.505 35.1998C122.004 34.6245 123.285 33.6503 124.187 32.4003C125.089 31.1504 125.57 29.6808 125.57 28.1775C125.57 26.1617 124.706 24.2284 123.167 22.8029C121.628 21.3775 119.541 20.5767 117.365 20.5767ZM117.365 33.2201C116.286 33.2214 115.232 32.9261 114.334 32.3718C113.437 31.8176 112.737 31.0291 112.324 30.1063C111.91 29.1835 111.802 28.1679 112.012 27.1879C112.222 26.208 112.741 25.3078 113.504 24.6014C114.267 23.8949 115.238 23.414 116.296 23.2194C117.354 23.0247 118.451 23.1252 119.447 23.5081C120.443 23.891 121.294 24.5391 121.893 25.3703C122.491 26.2015 122.81 27.1785 122.808 28.1775C122.808 29.5149 122.234 30.7975 121.214 31.7432C120.193 32.6889 118.808 33.2201 117.365 33.2201Z" fill="#FFB900"/>
<path d="M52.7051 28.1772L58.069 42.8304H60.671L63.1933 34.3726L65.7221 42.8304H68.3242L73.6881 28.1772H70.72L67.0398 39.3228L64.5176 30.3965H61.9688L59.4465 39.3228L55.7664 28.1772H52.7051Z" fill="#FFB900"/>
<path d="M79.5908 28.1772V42.7934H82.4591V36.8569H88.7746V34.5267H82.4591V30.5074H91.217V28.1772H79.5908Z" fill="#FFB900"/>
<path d="M98.0908 28.1772V42.7934H109.212V40.4632H100.959V28.1772H98.0908Z" fill="#FFB900"/>
<path d="M136.663 28.1772H133.835L127.12 42.818H129.968L131.473 39.4029H138.939L140.443 42.818H143.392L136.663 28.1772ZM132.444 37.1404L135.199 30.9082L137.994 37.1404H132.444Z" fill="#FFB900"/>
<path d="M150.406 42.7934H153.275V30.5691H158.313V28.1772H145.368V30.5691H150.406V42.7934Z" fill="#FFB900"/>
<path d="M162.618 40.9008C163.476 41.5761 164.459 42.1023 165.52 42.4542C166.666 42.8504 167.876 43.0591 169.1 43.0707C169.89 43.0776 170.677 42.9759 171.435 42.7686C172.084 42.5916 172.689 42.3007 173.219 41.9117C173.703 41.5419 174.092 41.0764 174.357 40.5494C174.637 39.9678 174.778 39.3369 174.769 38.7001V38.6569C174.784 38.1125 174.678 37.5711 174.457 37.0664C174.245 36.6315 173.932 36.2461 173.539 35.9384C173.07 35.5791 172.545 35.2881 171.981 35.0753C171.269 34.8053 170.537 34.5808 169.791 34.4034C169.086 34.2246 168.461 34.0705 168.009 33.9348C167.595 33.8289 167.198 33.6778 166.823 33.4848C166.532 33.3431 166.288 33.1299 166.118 32.8684C165.987 32.6169 165.92 32.3403 165.925 32.0608V32.0176C165.923 31.778 165.982 31.5412 166.098 31.3268C166.213 31.1124 166.382 30.9266 166.591 30.7847C167.13 30.4515 167.773 30.2913 168.421 30.3286C169.203 30.3313 169.977 30.4781 170.697 30.7601C171.369 31.0211 172.015 31.3367 172.627 31.7033L174.091 29.7307C173.356 29.2311 172.546 28.8324 171.688 28.547C170.655 28.218 169.568 28.0554 168.474 28.0662C167.722 28.0552 166.973 28.1594 166.258 28.3744C165.637 28.5586 165.06 28.8539 164.561 29.2437C164.1 29.6125 163.731 30.0688 163.476 30.5814C163.21 31.1293 163.078 31.7251 163.091 32.3259V32.3691C163.066 32.9716 163.187 33.5717 163.443 34.1259C163.671 34.5772 164.011 34.9722 164.434 35.2787C164.937 35.6077 165.492 35.8633 166.078 36.037C166.81 36.2816 167.557 36.4875 168.315 36.6534C169.02 36.8199 169.605 36.9801 170.052 37.1281C170.432 37.248 170.798 37.405 171.143 37.5966C171.421 37.7414 171.652 37.9547 171.808 38.2131C171.924 38.4427 171.98 38.6936 171.974 38.9466V38.9897C171.98 39.2614 171.909 39.5298 171.769 39.7685C171.629 40.0073 171.425 40.2084 171.176 40.3521C170.571 40.6747 169.877 40.8267 169.179 40.7898C168.224 40.7993 167.277 40.6163 166.404 40.2535C165.653 39.9335 164.943 39.5364 164.288 39.0699L162.618 40.9008Z" fill="#FFB900"/>
<path d="M180.233 28.7261H178.582V28.2515H182.436V28.7261H180.785V32.8009H180.233V28.7261Z" fill="#FFB900"/>
<path d="M183.48 28.2515H184.04L185.83 30.7358L187.62 28.2515H188.186V32.8009H187.627V29.1145L185.836 31.5556H185.81L184.02 29.1207V32.8009H183.48V28.2515Z" fill="#FFB900"/>
</svg>
