<svg width="21" height="20" viewBox="0 0 21 20" fill="none" xmlns="http://www.w3.org/2000/svg">
<path d="M17.9004 6.25H12.9004" stroke="#292D32" stroke-width="1.5" stroke-linecap="round" stroke-linejoin="round"/>
<path d="M6.90039 6.25H3.90039" stroke="#292D32" stroke-width="1.5" stroke-linecap="round" stroke-linejoin="round"/>
<path d="M9.65039 8.75C11.0311 8.75 12.1504 7.63071 12.1504 6.25C12.1504 4.86929 11.0311 3.75 9.65039 3.75C8.26968 3.75 7.15039 4.86929 7.15039 6.25C7.15039 7.63071 8.26968 8.75 9.65039 8.75Z" stroke="#292D32" stroke-width="1.5" stroke-linecap="round" stroke-linejoin="round"/>
<path d="M17.9004 13.75L14.9004 13.75" stroke="#292D32" stroke-width="1.5" stroke-linecap="round" stroke-linejoin="round"/>
<path d="M8.90039 13.75H3.90039" stroke="#292D32" stroke-width="1.5" stroke-linecap="round" stroke-linejoin="round"/>
<path d="M12.1504 16.25C13.5311 16.25 14.6504 15.1307 14.6504 13.75C14.6504 12.3693 13.5311 11.25 12.1504 11.25C10.7697 11.25 9.65039 12.3693 9.65039 13.75C9.65039 15.1307 10.7697 16.25 12.1504 16.25Z" stroke="#292D32" stroke-width="1.5" stroke-linecap="round" stroke-linejoin="round"/>
</svg>
