<svg width="25" height="25" viewBox="0 0 25 25" fill="none" xmlns="http://www.w3.org/2000/svg">
<path d="M12.5029 18.6172V15.5601" stroke="#536179" stroke-width="1.5" stroke-linecap="round" stroke-linejoin="round"/>
<path d="M11.0474 3.72943L11.0478 3.72913C11.8301 3.08983 13.1628 3.08755 13.958 3.73879L13.9595 3.74004L20.8875 9.38386C20.8878 9.38413 20.8881 9.38439 20.8884 9.38466C21.1453 9.59586 21.3966 9.96365 21.5646 10.4122C21.7322 10.8598 21.787 11.3089 21.7329 11.6493C21.7328 11.6498 21.7327 11.6503 21.7326 11.6508L20.4034 19.7575C20.4034 19.7579 20.4033 19.7583 20.4032 19.7587C20.2211 20.8448 19.1549 21.75 18.1032 21.75H6.90319C5.84065 21.75 4.78525 20.8542 4.60321 19.7591C4.60317 19.7588 4.60313 19.7586 4.60309 19.7583L3.27331 11.6481L3.27333 11.6481L3.27256 11.6436C3.21504 11.3057 3.26717 10.8587 3.43433 10.4122C3.60165 9.96525 3.85455 9.59804 4.11526 9.38686L4.11527 9.38686L4.1174 9.38512L11.0474 3.72943Z" stroke="#536179" stroke-width="1.5" stroke-linecap="round" stroke-linejoin="round"/>
</svg>
