<svg width="24" height="25" viewBox="0 0 24 25" fill="none" xmlns="http://www.w3.org/2000/svg">
<path d="M9.12909 3.5L5.87109 6.767" stroke="#536179" stroke-width="1.5" stroke-miterlimit="10" stroke-linecap="round" stroke-linejoin="round"/>
<path d="M14.8711 3.5L18.1291 6.767" stroke="#536179" stroke-width="1.5" stroke-miterlimit="10" stroke-linecap="round" stroke-linejoin="round"/>
<path d="M3 8.76484C3 7.09984 3.891 6.96484 4.998 6.96484H19.002C20.109 6.96484 21 7.09984 21 8.76484C21 10.6998 20.109 10.5648 19.002 10.5648H4.998C3.891 10.5648 3 10.6998 3 8.76484Z" stroke="#536179" stroke-width="1.5"/>
<path d="M9.98438 14.2998V17.4948" stroke="#536179" stroke-width="1.5" stroke-linecap="round"/>
<path d="M14.124 14.2998V17.4948" stroke="#536179" stroke-width="1.5" stroke-linecap="round"/>
<path d="M4.34961 10.7002L5.61861 18.4762C5.90661 20.2222 6.59961 21.5002 9.17361 21.5002H14.6006C17.3996 21.5002 17.8136 20.2762 18.1376 18.5842L19.6496 10.7002" stroke="#536179" stroke-width="1.5" stroke-linecap="round"/>
</svg>
