<svg width="24" height="25" viewBox="0 0 24 25" fill="none" xmlns="http://www.w3.org/2000/svg">
<path d="M4.08008 7.93994L12.4288 12.8299L20.7208 7.96862" stroke="white" stroke-width="1.5" stroke-linecap="round" stroke-linejoin="round"/>
<path d="M12.4287 21.4998V12.8203" stroke="white" stroke-width="1.5" stroke-linecap="round" stroke-linejoin="round"/>
<path d="M10.1956 3.64137L10.1982 3.63999C10.6537 3.39406 11.3032 3.25 11.9961 3.25C12.6886 3.25 13.342 3.39394 13.8042 3.64128L13.8044 3.64137L19.3582 6.6114L19.3595 6.61205C19.8448 6.87042 20.3265 7.35054 20.6885 7.94086C21.0514 8.53254 21.25 9.16297 21.25 9.68001V15.33C21.25 15.8471 21.0514 16.4775 20.6885 17.0692C20.3265 17.6595 19.8448 18.1396 19.3595 18.398L19.3582 18.3986L13.8061 21.3677C13.8059 21.3679 13.8056 21.368 13.8053 21.3682C13.3491 21.6104 12.6959 21.7525 12 21.7525C11.3041 21.7525 10.651 21.6104 10.1948 21.3682C10.1945 21.3681 10.1941 21.3679 10.1938 21.3677L4.64176 18.3986L4.64053 18.398C4.15524 18.1396 3.67348 17.6595 3.31147 17.0692C2.94862 16.4775 2.75 15.8471 2.75 15.33V9.68001C2.75 9.16297 2.94862 8.53254 3.31147 7.94086C3.67348 7.35054 4.15524 6.87042 4.64054 6.61205L4.64176 6.6114L10.1956 3.64137Z" stroke="white" stroke-width="1.5" stroke-linecap="round" stroke-linejoin="round"/>
<path d="M17.5 13.5V10L8 5" stroke="white" stroke-width="1.5" stroke-linecap="round" stroke-linejoin="round"/>
</svg>
