<svg width="20" height="21" viewBox="0 0 20 21" fill="none" xmlns="http://www.w3.org/2000/svg">
<path d="M10 13C11.3807 13 12.5 11.8807 12.5 10.5C12.5 9.11929 11.3807 8 10 8C8.61929 8 7.5 9.11929 7.5 10.5C7.5 11.8807 8.61929 13 10 13Z" stroke="#536179" stroke-width="1.5" stroke-miterlimit="10" stroke-linecap="round" stroke-linejoin="round"/>
<path d="M1.66699 11.2334V9.76669C1.66699 8.90003 2.37533 8.18336 3.25033 8.18336C4.75866 8.18336 5.37533 7.1167 4.61699 5.80836C4.18366 5.05836 4.44199 4.08336 5.20033 3.65003L6.64199 2.82503C7.30033 2.43336 8.15033 2.6667 8.54199 3.32503L8.63366 3.48336C9.38366 4.7917 10.617 4.7917 11.3753 3.48336L11.467 3.32503C11.8587 2.6667 12.7087 2.43336 13.367 2.82503L14.8087 3.65003C15.567 4.08336 15.8253 5.05836 15.392 5.80836C14.6337 7.1167 15.2503 8.18336 16.7587 8.18336C17.6253 8.18336 18.342 8.89169 18.342 9.76669V11.2334C18.342 12.1 17.6337 12.8167 16.7587 12.8167C15.2503 12.8167 14.6337 13.8834 15.392 15.1917C15.8253 15.95 15.567 16.9167 14.8087 17.35L13.367 18.175C12.7087 18.5667 11.8587 18.3334 11.467 17.675L11.3753 17.5167C10.6253 16.2084 9.39199 16.2084 8.63366 17.5167L8.54199 17.675C8.15033 18.3334 7.30033 18.5667 6.64199 18.175L5.20033 17.35C4.44199 16.9167 4.18366 15.9417 4.61699 15.1917C5.37533 13.8834 4.75866 12.8167 3.25033 12.8167C2.37533 12.8167 1.66699 12.1 1.66699 11.2334Z" stroke="#536179" stroke-width="1.5" stroke-miterlimit="10" stroke-linecap="round" stroke-linejoin="round"/>
</svg>
