<svg width="20" height="21" viewBox="0 0 20 21" fill="none" xmlns="http://www.w3.org/2000/svg">
<path d="M10.0001 12.1665H10.8335C11.7501 12.1665 12.5001 11.4165 12.5001 10.4998V2.1665H5.00012C3.75012 2.1665 2.65846 2.85816 2.0918 3.87483" stroke="#536179" stroke-width="1.5" stroke-linecap="round" stroke-linejoin="round"/>
<path d="M1.66699 14.6665C1.66699 16.0498 2.78366 17.1665 4.16699 17.1665H5.00033C5.00033 16.2498 5.75033 15.4998 6.66699 15.4998C7.58366 15.4998 8.33366 16.2498 8.33366 17.1665H11.667C11.667 16.2498 12.417 15.4998 13.3337 15.4998C14.2503 15.4998 15.0003 16.2498 15.0003 17.1665H15.8337C17.217 17.1665 18.3337 16.0498 18.3337 14.6665V12.1665H15.8337C15.3753 12.1665 15.0003 11.7915 15.0003 11.3332V8.83317C15.0003 8.37484 15.3753 7.99984 15.8337 7.99984H16.9086L15.4837 5.50818C15.1837 4.99151 14.6337 4.6665 14.0337 4.6665H12.5003V10.4998C12.5003 11.4165 11.7503 12.1665 10.8337 12.1665H10.0003" stroke="#536179" stroke-width="1.5" stroke-linecap="round" stroke-linejoin="round"/>
<path d="M6.66667 18.8333C7.58714 18.8333 8.33333 18.0871 8.33333 17.1667C8.33333 16.2462 7.58714 15.5 6.66667 15.5C5.74619 15.5 5 16.2462 5 17.1667C5 18.0871 5.74619 18.8333 6.66667 18.8333Z" stroke="#536179" stroke-width="1.5" stroke-linecap="round" stroke-linejoin="round"/>
<path d="M13.3337 18.8333C14.2541 18.8333 15.0003 18.0871 15.0003 17.1667C15.0003 16.2462 14.2541 15.5 13.3337 15.5C12.4132 15.5 11.667 16.2462 11.667 17.1667C11.667 18.0871 12.4132 18.8333 13.3337 18.8333Z" stroke="#536179" stroke-width="1.5" stroke-linecap="round" stroke-linejoin="round"/>
<path d="M18.3333 10.5V12.1667H15.8333C15.375 12.1667 15 11.7917 15 11.3333V8.83333C15 8.375 15.375 8 15.8333 8H16.9083L18.3333 10.5Z" stroke="#536179" stroke-width="1.5" stroke-linecap="round" stroke-linejoin="round"/>
<path d="M1.66699 7.1665H6.66699" stroke="#536179" stroke-width="1.5" stroke-linecap="round" stroke-linejoin="round"/>
<path d="M1.66699 9.6665H5.00033" stroke="#536179" stroke-width="1.5" stroke-linecap="round" stroke-linejoin="round"/>
<path d="M1.66699 12.1665H3.33366" stroke="#536179" stroke-width="1.5" stroke-linecap="round" stroke-linejoin="round"/>
</svg>
